<svg viewBox="0 0 420 536" xmlns="http://www.w3.org/2000/svg">
<path d="M20 0C8.95431 0 0 8.95429 0 20V520C0 521.064 0.0830623 522.108 0.243055 523.127C3.27943 521.88 6.44852 520.998 9.64262 520.474C26.0583 517.784 42.8513 522.268 58.7009 526.951C59.2344 527.109 59.7686 527.267 60.3034 527.425C75.6559 531.969 91.5251 536.666 107.57 535.221C121.51 534.005 134.608 528.284 147.574 522.62C164.356 515.289 180.917 508.055 198.8 510.809C209.149 512.393 218.306 517.251 227.408 522.08C229.756 523.326 232.101 524.57 234.462 525.755C245.971 531.535 259.557 536.118 272.104 532.631C280 530.444 286.25 525.403 292.509 520.354C298.514 515.511 304.528 510.66 312.011 508.318C323.42 504.718 335.494 507.566 347.577 510.416C359.575 513.246 371.582 516.078 382.957 512.603C393.712 509.314 401.543 500.944 407.864 492.375C409.051 490.808 410.216 489.216 411.382 487.623C414.142 483.852 416.909 480.072 420 476.574V20C420 8.95431 411.046 0 400 0H20Z" fill="white"/>
</svg>
