<svg aria-hidden="true" style="position: absolute; width: 0; height: 0; overflow: hidden;" version="1.1" xmlns="http://www.w3.org/2000/svg" xmlns:xlink="http://www.w3.org/1999/xlink">
<defs>
<symbol id="icon-twitter" viewBox="0 0 32 32">
<path d="M16 0c-8.835 0-16 7.165-16 16s7.165 16 16 16c8.835 0 16-7.165 16-16s-7.165-16-16-16zM23.305 12.475c0.007 0.157 0.010 0.316 0.010 0.475 0 4.853-3.694 10.449-10.449 10.449v0c-2.074 0-4.004-0.608-5.629-1.65 0.287 0.034 0.58 0.051 0.876 0.051 1.721 0 3.304-0.587 4.561-1.572-1.608-0.030-2.963-1.092-3.431-2.551 0.224 0.043 0.454 0.066 0.69 0.066 0.335 0 0.66-0.045 0.969-0.129-1.68-0.336-2.946-1.822-2.946-3.6 0-0.017 0-0.031 0-0.047 0.495 0.275 1.061 0.441 1.663 0.459-0.986-0.658-1.634-1.783-1.634-3.057 0-0.673 0.182-1.303 0.497-1.846 1.811 2.222 4.518 3.684 7.57 3.837-0.063-0.269-0.095-0.549-0.095-0.837 0-2.027 1.645-3.672 3.673-3.672 1.056 0 2.011 0.447 2.681 1.16 0.837-0.165 1.622-0.471 2.332-0.891-0.275 0.857-0.857 1.576-1.615 2.031 0.743-0.089 1.451-0.286 2.109-0.578-0.491 0.737-1.115 1.383-1.832 1.902z"></path>
</symbol>
<symbol id="icon-instagram" viewBox="0 0 32 32">
<path d="M19.063 16c0 1.691-1.371 3.063-3.063 3.063s-3.063-1.371-3.063-3.063c0-1.691 1.371-3.063 3.063-3.063s3.063 1.371 3.063 3.063z"></path>
<path d="M23.162 10.581c-0.147-0.399-0.382-0.76-0.687-1.056-0.296-0.305-0.657-0.54-1.056-0.687-0.324-0.126-0.81-0.275-1.706-0.316-0.969-0.044-1.26-0.054-3.713-0.054s-2.744 0.009-3.713 0.053c-0.896 0.041-1.382 0.191-1.706 0.316-0.399 0.147-0.76 0.382-1.056 0.687-0.305 0.296-0.54 0.657-0.688 1.056-0.126 0.324-0.275 0.81-0.316 1.706-0.044 0.969-0.054 1.259-0.054 3.713s0.010 2.744 0.054 3.713c0.041 0.896 0.19 1.382 0.316 1.706 0.148 0.399 0.382 0.76 0.687 1.056 0.296 0.305 0.657 0.54 1.056 0.687 0.324 0.126 0.81 0.276 1.706 0.316 0.969 0.044 1.259 0.053 3.712 0.053s2.744-0.009 3.713-0.053c0.896-0.041 1.382-0.19 1.706-0.316 0.801-0.309 1.435-0.942 1.744-1.744 0.126-0.324 0.275-0.81 0.316-1.706 0.044-0.969 0.053-1.26 0.053-3.713s-0.009-2.744-0.053-3.713c-0.041-0.896-0.19-1.382-0.316-1.706zM16 20.718c-2.606 0-4.718-2.112-4.718-4.718s2.112-4.718 4.718-4.718c2.605 0 4.718 2.112 4.718 4.718s-2.112 4.718-4.718 4.718zM20.904 12.198c-0.609 0-1.103-0.494-1.103-1.103s0.494-1.103 1.103-1.103 1.103 0.494 1.103 1.103c-0 0.609-0.494 1.103-1.103 1.103z"></path>
<path d="M16 0c-8.835 0-16 7.165-16 16s7.165 16 16 16c8.835 0 16-7.165 16-16s-7.165-16-16-16zM25.132 19.788c-0.044 0.978-0.2 1.646-0.427 2.23-0.477 1.234-1.453 2.21-2.687 2.687-0.584 0.227-1.252 0.382-2.23 0.427-0.98 0.045-1.293 0.055-3.788 0.055s-2.808-0.011-3.788-0.055c-0.978-0.045-1.646-0.2-2.23-0.427-0.613-0.231-1.168-0.592-1.627-1.060-0.467-0.459-0.829-1.014-1.060-1.627-0.227-0.584-0.383-1.252-0.427-2.23-0.045-0.98-0.056-1.293-0.056-3.788s0.010-2.808 0.055-3.788c0.044-0.978 0.2-1.646 0.427-2.23 0.231-0.613 0.593-1.168 1.060-1.627 0.459-0.468 1.014-0.829 1.627-1.060 0.585-0.227 1.252-0.382 2.23-0.427 0.98-0.045 1.293-0.055 3.788-0.055s2.808 0.011 3.788 0.056c0.978 0.044 1.646 0.2 2.23 0.426 0.613 0.231 1.168 0.593 1.627 1.060 0.467 0.459 0.829 1.014 1.060 1.627 0.227 0.585 0.383 1.252 0.427 2.23 0.045 0.98 0.055 1.293 0.055 3.788s-0.010 2.808-0.055 3.788z"></path>
</symbol>
<symbol id="icon-facebook" viewBox="0 0 32 32">
<path d="M16 0c-8.837 0-16 7.163-16 16s7.163 16 16 16c8.837 0 16-7.163 16-16s-7.163-16-16-16zM22.104 8.148l-2.213 0.001c-1.735 0-2.071 0.825-2.071 2.035v2.668h4.138l-0.002 4.179h-4.136v10.724h-4.316v-10.724h-3.608v-4.179h3.608v-3.082c0-3.576 2.185-5.524 5.375-5.524l3.225 0.005v3.898h-0z"></path>
</symbol>
<symbol id="icon-arrow" viewBox="0 0 136 32">
<path d="M134.748 17.414c0.78-0.781 0.78-2.047 0-2.829l-12.728-12.728c-0.781-0.781-2.047-0.781-2.828 0s-0.781 2.047 0 2.828l11.314 11.314-11.314 11.314c-0.781 0.781-0.781 2.047 0 2.828s2.047 0.781 2.828 0l12.728-12.728zM0 18h133.333v-4h-133.333v4z"></path>
</symbol>
<symbol id="icon-play" viewBox="0 0 30 32">
<path d="M19.898 15.172l-8.725-5.332c-0.147-0.090-0.315-0.139-0.487-0.142s-0.342 0.039-0.492 0.124c-0.15 0.084-0.275 0.207-0.362 0.356s-0.133 0.318-0.133 0.49v10.666c0 0.172 0.046 0.341 0.133 0.49s0.212 0.271 0.362 0.355c0.15 0.084 0.32 0.127 0.492 0.124s0.34-0.052 0.487-0.142l8.725-5.332c0.142-0.087 0.259-0.208 0.34-0.353s0.124-0.308 0.124-0.474c0-0.166-0.043-0.329-0.124-0.474s-0.198-0.267-0.34-0.353z"></path>
</symbol>
<symbol id="logo" viewBox="0 0 41 32">
<path d="M33.258 19.053c0.548-3.928-0.132-7.68-0.878-10.313-0.044-0.132-0.066-0.241-0.11-0.373-0.417 0.483-0.878 0.9-1.36 1.295-0.175 0.132-0.351 0.285-0.526 0.417-0.22 0.154-0.417 0.307-0.636 0.461-0.987 0.68-2.019 1.295-2.984 1.997-0.987-2.26-2.282-4.388-3.511-6.539-0.965-1.668-1.887-3.357-2.633-5.112-0.044-0.11-0.088-0.219-0.132-0.329-0.768 1.887-1.755 3.686-2.787 5.442-1.229 2.15-2.523 4.279-3.511 6.539-0.965-0.702-1.997-1.316-2.984-1.997-0.219-0.154-0.439-0.307-0.636-0.461-0.68-0.505-1.338-1.075-1.909-1.711-0.79 2.633-1.558 6.561-0.987 10.664-3.028-0.307-5.112-0.9-6.561-1.58 0.571 2.896 2.26 8.096 6.999 11.212 0 0 0.022 0 0.022 0.022 0.351 0.219 0.724 0.439 1.097 0.658 0.154 0.088 0.307 0.154 0.461 0.242 1.624 0.812 3.555 1.382 5.837 1.602-2.15-1.821-3.642-3.818-4.652-5.88-0.702-1.426-1.163-2.874-1.448-4.322 1.141 0.132 2.172 0.373 3.138 0.724 0.11 0.68 0.263 1.36 0.505 2.041 0.768 2.216 2.326 4.147 4.323 5.398 0.724 0.461 1.514 0.812 2.326 1.075 0.154-1.646-0.263-3.642-1.382-5.507-0.285-0.461-0.614-0.922-0.987-1.36-0.439-1.843-0.263-3.84 0.549-5.573 0.636-1.338 1.733-3.138 2.457-4.41 0.044-0.066 0.088-0.154 0.132-0.219 0.044 0.066 0.088 0.154 0.11 0.219 0.746 1.295 1.843 3.072 2.457 4.41 0.812 1.733 0.987 3.73 0.549 5.573-1.865 2.172-2.545 4.783-2.37 6.824 0 0 0 0 0 0.022s0 0.022 0 0.022c0.812-0.263 1.602-0.614 2.326-1.075 0.307-0.198 0.592-0.395 0.878-0.614 1.58-1.229 2.787-2.896 3.445-4.783 0.241-0.658 0.395-1.338 0.505-2.041 0.966-0.351 1.997-0.592 3.138-0.724-0.702 3.511-2.457 7.109-6.1 10.181 2.282-0.22 4.213-0.79 5.836-1.602 0.154-0.066 0.307-0.154 0.461-0.242 5.288-2.83 7.285-8.14 8.009-11.344 0.044-0.176 0.088-0.351 0.11-0.527-1.492 0.68-3.577 1.273-6.583 1.602zM9.89 25.636c1.009 1.755 2.414 3.423 4.301 4.959-1.404-0.307-2.655-0.768-3.73-1.36-4.103-2.194-6.012-6.012-6.912-8.886 1.251 0.285 2.677 0.483 4.279 0.505 0.044 0 0.11 0 0.154 0 0.395 1.624 0.987 3.225 1.909 4.783zM13.4 14.446c-0.439 1.273-0.768 2.589-0.9 3.928-0.022 0.307-0.044 0.592-0.066 0.9 0 0.241-0.022 0.483-0.022 0.746-0.965-0.351-2.063-0.636-3.269-0.79-0.044-0.461-0.088-0.922-0.088-1.36-0.088-2.37 0.219-4.586 0.636-6.429 0.461 0.285 0.922 0.57 1.404 0.812 0.878 0.461 1.777 0.9 2.611 1.404-0.11 0.241-0.197 0.505-0.307 0.79zM18.228 26.097c0.68 1.097 1.031 2.238 1.053 3.335 0 0.044 0 0.088 0 0.132-0.329-0.176-0.658-0.395-0.965-0.614-1.887-1.36-3.291-3.357-3.95-5.573-0.088-0.307-0.154-0.614-0.219-0.922 0.965 0.505 1.799 1.097 2.501 1.755 0.636 0.57 1.163 1.229 1.58 1.887zM16.692 18.351c-0.088 0.307-0.154 0.636-0.197 0.944 0 0.044-0.022 0.066-0.022 0.11-0.154 1.053-0.154 2.128 0.088 3.138-0.066-0.044-0.11-0.11-0.176-0.154-0.68-0.636-1.492-1.207-2.436-1.69 0-0.219-0.022-0.439-0.022-0.68 0-0.263 0-0.549 0.022-0.812 0-0.044 0-0.11 0-0.154 0.066-1.053 0.263-2.106 0.527-3.138 0.132-0.483 0.263-0.965 0.417-1.426 0.219 0.176 0.461 0.373 0.658 0.571 0.614 0.592 1.119 1.273 1.492 2.019-0.088 0.417-0.219 0.834-0.351 1.273zM21.914 12.932c-0.483-0.987-0.944-1.997-1.295-3.050-0.066-0.176-0.11-0.329-0.154-0.505-0.373 1.229-0.9 2.392-1.47 3.533-0.527 1.075-1.075 2.15-1.536 3.247-0.439-0.965-1.141-1.843-1.931-2.545-0.066-0.066-0.132-0.132-0.197-0.176 0.285-0.768 0.592-1.514 0.922-2.26 0.329-0.768 0.68-1.514 1.031-2.282 0.878-1.865 2.128-4.103 3.182-6.495 0.724 1.668 1.558 3.269 2.304 4.717 0.307 0.636 0.614 1.229 0.878 1.799 0.351 0.746 0.702 1.514 1.031 2.282 0.329 0.746 0.636 1.492 0.922 2.26-0.066 0.066-0.132 0.132-0.197 0.176-0.79 0.724-1.492 1.58-1.931 2.545-0.461-1.097-1.031-2.172-1.558-3.247zM23.823 17.057c0.373-0.746 0.878-1.426 1.492-2.019 0.219-0.197 0.439-0.395 0.658-0.57 0.154 0.483 0.307 0.944 0.417 1.426 0.285 1.075 0.483 2.172 0.549 3.291 0.022 0.505 0.044 0.987 0.022 1.492 0 0 0 0-0.022 0-0.944 0.483-1.733 1.053-2.436 1.689-0.066 0.044-0.11 0.11-0.176 0.154 0.329-1.36 0.219-2.809-0.132-4.169-0.088-0.439-0.219-0.856-0.373-1.295zM21.629 29.432c0.044-2.501 1.909-5.31 5.134-7-0.066 0.307-0.132 0.614-0.219 0.922-0.483 1.69-1.426 3.247-2.655 4.476-0.395 0.395-0.834 0.768-1.273 1.097-0.307 0.22-0.636 0.417-0.965 0.614-0.022-0.044-0.022-0.088-0.022-0.11zM28.496 20.019c0.022-1.887-0.373-3.796-0.988-5.573-0.088-0.263-0.197-0.549-0.307-0.812 0.856-0.505 1.755-0.944 2.611-1.404 0.483-0.241 0.943-0.527 1.404-0.812 0.066 0.263 0.11 0.527 0.176 0.79 0.329 1.668 0.549 3.598 0.461 5.639-0.022 0.439-0.044 0.9-0.088 1.36-1.207 0.176-2.304 0.461-3.269 0.812zM30.449 29.256c-1.075 0.57-2.326 1.053-3.73 1.36 3.577-2.896 5.398-6.319 6.21-9.72 0.044 0 0.11 0 0.154 0 1.624-0.022 3.050-0.219 4.279-0.505-0.878 2.852-2.809 6.67-6.911 8.864z"></path>
</symbol>
</defs>
</svg>
