<svg aria-hidden="true" style="position: absolute; width: 0; height: 0; overflow: hidden;" version="1.1" xmlns="http://www.w3.org/2000/svg" xmlns:xlink="http://www.w3.org/1999/xlink">
<defs>
<symbol id="icon-twitter" viewBox="0 0 32 32">
<path d="M16 0c-8.835 0-16 7.165-16 16s7.165 16 16 16c8.835 0 16-7.165 16-16s-7.165-16-16-16zM23.305 12.475c0.007 0.157 0.010 0.316 0.010 0.475 0 4.853-3.694 10.449-10.449 10.449v0c-2.074 0-4.004-0.608-5.629-1.65 0.287 0.034 0.58 0.051 0.876 0.051 1.721 0 3.304-0.587 4.561-1.572-1.608-0.030-2.963-1.092-3.431-2.551 0.224 0.043 0.454 0.066 0.69 0.066 0.335 0 0.66-0.045 0.969-0.129-1.68-0.336-2.946-1.822-2.946-3.6 0-0.017 0-0.031 0-0.047 0.495 0.275 1.061 0.441 1.663 0.459-0.986-0.658-1.634-1.783-1.634-3.057 0-0.673 0.182-1.303 0.497-1.846 1.811 2.222 4.518 3.684 7.57 3.837-0.063-0.269-0.095-0.549-0.095-0.837 0-2.027 1.645-3.672 3.673-3.672 1.056 0 2.011 0.447 2.681 1.16 0.837-0.165 1.622-0.471 2.332-0.891-0.275 0.857-0.857 1.576-1.615 2.031 0.743-0.089 1.451-0.286 2.109-0.578-0.491 0.737-1.115 1.383-1.832 1.902z"></path>
</symbol>
<symbol id="icon-instagram" viewBox="0 0 32 32">
<path d="M19.063 16c0 1.691-1.371 3.063-3.063 3.063s-3.063-1.371-3.063-3.063c0-1.691 1.371-3.063 3.063-3.063s3.063 1.371 3.063 3.063z"></path>
<path d="M23.162 10.581c-0.147-0.399-0.382-0.76-0.687-1.056-0.296-0.305-0.657-0.54-1.056-0.687-0.324-0.126-0.81-0.275-1.706-0.316-0.969-0.044-1.26-0.054-3.713-0.054s-2.744 0.009-3.713 0.053c-0.896 0.041-1.382 0.191-1.706 0.316-0.399 0.147-0.76 0.382-1.056 0.687-0.305 0.296-0.54 0.657-0.688 1.056-0.126 0.324-0.275 0.81-0.316 1.706-0.044 0.969-0.054 1.259-0.054 3.713s0.010 2.744 0.054 3.713c0.041 0.896 0.19 1.382 0.316 1.706 0.148 0.399 0.382 0.76 0.687 1.056 0.296 0.305 0.657 0.54 1.056 0.687 0.324 0.126 0.81 0.276 1.706 0.316 0.969 0.044 1.259 0.053 3.712 0.053s2.744-0.009 3.713-0.053c0.896-0.041 1.382-0.19 1.706-0.316 0.801-0.309 1.435-0.942 1.744-1.744 0.126-0.324 0.275-0.81 0.316-1.706 0.044-0.969 0.053-1.26 0.053-3.713s-0.009-2.744-0.053-3.713c-0.041-0.896-0.19-1.382-0.316-1.706zM16 20.718c-2.606 0-4.718-2.112-4.718-4.718s2.112-4.718 4.718-4.718c2.605 0 4.718 2.112 4.718 4.718s-2.112 4.718-4.718 4.718zM20.904 12.198c-0.609 0-1.103-0.494-1.103-1.103s0.494-1.103 1.103-1.103 1.103 0.494 1.103 1.103c-0 0.609-0.494 1.103-1.103 1.103z"></path>
<path d="M16 0c-8.835 0-16 7.165-16 16s7.165 16 16 16c8.835 0 16-7.165 16-16s-7.165-16-16-16zM25.132 19.788c-0.044 0.978-0.2 1.646-0.427 2.23-0.477 1.234-1.453 2.21-2.687 2.687-0.584 0.227-1.252 0.382-2.23 0.427-0.98 0.045-1.293 0.055-3.788 0.055s-2.808-0.011-3.788-0.055c-0.978-0.045-1.646-0.2-2.23-0.427-0.613-0.231-1.168-0.592-1.627-1.060-0.467-0.459-0.829-1.014-1.060-1.627-0.227-0.584-0.383-1.252-0.427-2.23-0.045-0.98-0.056-1.293-0.056-3.788s0.010-2.808 0.055-3.788c0.044-0.978 0.2-1.646 0.427-2.23 0.231-0.613 0.593-1.168 1.060-1.627 0.459-0.468 1.014-0.829 1.627-1.060 0.585-0.227 1.252-0.382 2.23-0.427 0.98-0.045 1.293-0.055 3.788-0.055s2.808 0.011 3.788 0.056c0.978 0.044 1.646 0.2 2.23 0.426 0.613 0.231 1.168 0.593 1.627 1.060 0.467 0.459 0.829 1.014 1.060 1.627 0.227 0.585 0.383 1.252 0.427 2.23 0.045 0.98 0.055 1.293 0.055 3.788s-0.010 2.808-0.055 3.788z"></path>
</symbol>
<symbol id="icon-facebook" viewBox="0 0 32 32">
<path d="M16 0c-8.837 0-16 7.163-16 16s7.163 16 16 16c8.837 0 16-7.163 16-16s-7.163-16-16-16zM22.104 8.148l-2.213 0.001c-1.735 0-2.071 0.825-2.071 2.035v2.668h4.138l-0.002 4.179h-4.136v10.724h-4.316v-10.724h-3.608v-4.179h3.608v-3.082c0-3.576 2.185-5.524 5.375-5.524l3.225 0.005v3.898h-0z"></path>
</symbol>
<symbol id="icon-arrow" viewBox="0 0 136 32">
<path d="M134.748 17.414c0.78-0.781 0.78-2.047 0-2.829l-12.728-12.728c-0.781-0.781-2.047-0.781-2.828 0s-0.781 2.047 0 2.828l11.314 11.314-11.314 11.314c-0.781 0.781-0.781 2.047 0 2.828s2.047 0.781 2.828 0l12.728-12.728zM0 18h133.333v-4h-133.333v4z"></path>
</symbol>
<symbol id="icon-play" viewBox="0 0 30 32">
<path d="M19.898 15.172l-8.725-5.332c-0.147-0.090-0.315-0.139-0.487-0.142s-0.342 0.039-0.492 0.124c-0.15 0.084-0.275 0.207-0.362 0.356s-0.133 0.318-0.133 0.49v10.666c0 0.172 0.046 0.341 0.133 0.49s0.212 0.271 0.362 0.355c0.15 0.084 0.32 0.127 0.492 0.124s0.34-0.052 0.487-0.142l8.725-5.332c0.142-0.087 0.259-0.208 0.34-0.353s0.124-0.308 0.124-0.474c0-0.166-0.043-0.329-0.124-0.474s-0.198-0.267-0.34-0.353z"></path>
</symbol>
<symbol id="logo" viewBox="0 0 41 32">
<path d="M33.258 19.053c0.548-3.928-0.132-7.68-0.878-10.313-0.044-0.132-0.066-0.241-0.11-0.373-0.417 0.483-0.878 0.9-1.36 1.295-0.175 0.132-0.351 0.285-0.526 0.417-0.22 0.154-0.417 0.307-0.636 0.461-0.987 0.68-2.019 1.295-2.984 1.997-0.987-2.26-2.282-4.388-3.511-6.539-0.965-1.668-1.887-3.357-2.633-5.112-0.044-0.11-0.088-0.219-0.132-0.329-0.768 1.887-1.755 3.686-2.787 5.442-1.229 2.15-2.523 4.279-3.511 6.539-0.965-0.702-1.997-1.316-2.984-1.997-0.219-0.154-0.439-0.307-0.636-0.461-0.68-0.505-1.338-1.075-1.909-1.711-0.79 2.633-1.558 6.561-0.987 10.664-3.028-0.307-5.112-0.9-6.561-1.58 0.571 2.896 2.26 8.096 6.999 11.212 0 0 0.022 0 0.022 0.022 0.351 0.219 0.724 0.439 1.097 0.658 0.154 0.088 0.307 0.154 0.461 0.242 1.624 0.812 3.555 1.382 5.837 1.602-2.15-1.821-3.642-3.818-4.652-5.88-0.702-1.426-1.163-2.874-1.448-4.322 1.141 0.132 2.172 0.373 3.138 0.724 0.11 0.68 0.263 1.36 0.505 2.041 0.768 2.216 2.326 4.147 4.323 5.398 0.724 0.461 1.514 0.812 2.326 1.075 0.154-1.646-0.263-3.642-1.382-5.507-0.285-0.461-0.614-0.922-0.987-1.36-0.439-1.843-0.263-3.84 0.549-5.573 0.636-1.338 1.733-3.138 2.457-4.41 0.044-0.066 0.088-0.154 0.132-0.219 0.044 0.066 0.088 0.154 0.11 0.219 0.746 1.295 1.843 3.072 2.457 4.41 0.812 1.733 0.987 3.73 0.549 5.573-1.865 2.172-2.545 4.783-2.37 6.824 0 0 0 0 0 0.022s0 0.022 0 0.022c0.812-0.263 1.602-0.614 2.326-1.075 0.307-0.198 0.592-0.395 0.878-0.614 1.58-1.229 2.787-2.896 3.445-4.783 0.241-0.658 0.395-1.338 0.505-2.041 0.966-0.351 1.997-0.592 3.138-0.724-0.702 3.511-2.457 7.109-6.1 10.181 2.282-0.22 4.213-0.79 5.836-1.602 0.154-0.066 0.307-0.154 0.461-0.242 5.288-2.83 7.285-8.14 8.009-11.344 0.044-0.176 0.088-0.351 0.11-0.527-1.492 0.68-3.577 1.273-6.583 1.602zM9.89 25.636c1.009 1.755 2.414 3.423 4.301 4.959-1.404-0.307-2.655-0.768-3.73-1.36-4.103-2.194-6.012-6.012-6.912-8.886 1.251 0.285 2.677 0.483 4.279 0.505 0.044 0 0.11 0 0.154 0 0.395 1.624 0.987 3.225 1.909 4.783zM13.4 14.446c-0.439 1.273-0.768 2.589-0.9 3.928-0.022 0.307-0.044 0.592-0.066 0.9 0 0.241-0.022 0.483-0.022 0.746-0.965-0.351-2.063-0.636-3.269-0.79-0.044-0.461-0.088-0.922-0.088-1.36-0.088-2.37 0.219-4.586 0.636-6.429 0.461 0.285 0.922 0.57 1.404 0.812 0.878 0.461 1.777 0.9 2.611 1.404-0.11 0.241-0.197 0.505-0.307 0.79zM18.228 26.097c0.68 1.097 1.031 2.238 1.053 3.335 0 0.044 0 0.088 0 0.132-0.329-0.176-0.658-0.395-0.965-0.614-1.887-1.36-3.291-3.357-3.95-5.573-0.088-0.307-0.154-0.614-0.219-0.922 0.965 0.505 1.799 1.097 2.501 1.755 0.636 0.57 1.163 1.229 1.58 1.887zM16.692 18.351c-0.088 0.307-0.154 0.636-0.197 0.944 0 0.044-0.022 0.066-0.022 0.11-0.154 1.053-0.154 2.128 0.088 3.138-0.066-0.044-0.11-0.11-0.176-0.154-0.68-0.636-1.492-1.207-2.436-1.69 0-0.219-0.022-0.439-0.022-0.68 0-0.263 0-0.549 0.022-0.812 0-0.044 0-0.11 0-0.154 0.066-1.053 0.263-2.106 0.527-3.138 0.132-0.483 0.263-0.965 0.417-1.426 0.219 0.176 0.461 0.373 0.658 0.571 0.614 0.592 1.119 1.273 1.492 2.019-0.088 0.417-0.219 0.834-0.351 1.273zM21.914 12.932c-0.483-0.987-0.944-1.997-1.295-3.050-0.066-0.176-0.11-0.329-0.154-0.505-0.373 1.229-0.9 2.392-1.47 3.533-0.527 1.075-1.075 2.15-1.536 3.247-0.439-0.965-1.141-1.843-1.931-2.545-0.066-0.066-0.132-0.132-0.197-0.176 0.285-0.768 0.592-1.514 0.922-2.26 0.329-0.768 0.68-1.514 1.031-2.282 0.878-1.865 2.128-4.103 3.182-6.495 0.724 1.668 1.558 3.269 2.304 4.717 0.307 0.636 0.614 1.229 0.878 1.799 0.351 0.746 0.702 1.514 1.031 2.282 0.329 0.746 0.636 1.492 0.922 2.26-0.066 0.066-0.132 0.132-0.197 0.176-0.79 0.724-1.492 1.58-1.931 2.545-0.461-1.097-1.031-2.172-1.558-3.247zM23.823 17.057c0.373-0.746 0.878-1.426 1.492-2.019 0.219-0.197 0.439-0.395 0.658-0.57 0.154 0.483 0.307 0.944 0.417 1.426 0.285 1.075 0.483 2.172 0.549 3.291 0.022 0.505 0.044 0.987 0.022 1.492 0 0 0 0-0.022 0-0.944 0.483-1.733 1.053-2.436 1.689-0.066 0.044-0.11 0.11-0.176 0.154 0.329-1.36 0.219-2.809-0.132-4.169-0.088-0.439-0.219-0.856-0.373-1.295zM21.629 29.432c0.044-2.501 1.909-5.31 5.134-7-0.066 0.307-0.132 0.614-0.219 0.922-0.483 1.69-1.426 3.247-2.655 4.476-0.395 0.395-0.834 0.768-1.273 1.097-0.307 0.22-0.636 0.417-0.965 0.614-0.022-0.044-0.022-0.088-0.022-0.11zM28.496 20.019c0.022-1.887-0.373-3.796-0.988-5.573-0.088-0.263-0.197-0.549-0.307-0.812 0.856-0.505 1.755-0.944 2.611-1.404 0.483-0.241 0.943-0.527 1.404-0.812 0.066 0.263 0.11 0.527 0.176 0.79 0.329 1.668 0.549 3.598 0.461 5.639-0.022 0.439-0.044 0.9-0.088 1.36-1.207 0.176-2.304 0.461-3.269 0.812zM30.449 29.256c-1.075 0.57-2.326 1.053-3.73 1.36 3.577-2.896 5.398-6.319 6.21-9.72 0.044 0 0.11 0 0.154 0 1.624-0.022 3.050-0.219 4.279-0.505-0.878 2.852-2.809 6.67-6.911 8.864z"></path>
</symbol>
<symbol id="icon-yoga" viewBox="0 0 32 32">
<path fill="#f9cfac" style="fill: var(--color1, #f9cfac)" d="M17.409 4.241c0 1.16-0.378 1.884-0.709 2.635-0.558 1.266-2.534 1.266-3.092 0l-0.29-0.659c-0.301-0.684-0.535-1.748-0.363-2.433 0.226-0.903 1.116-1.593 2.198-1.593 1.226 0 2.255 0.902 2.255 2.050z"></path>
<path fill="#ffe4cc" style="fill: var(--color2, #ffe4cc)" d="M17.353 3.782c-0.113 0.752-0.352 1.222-0.652 1.903-0.557 1.266-2.535 1.267-3.092 0-0.307-0.698-0.537-1.144-0.652-1.901 0.388-1.551 2.531-2.142 3.792-0.992 0.294 0.268 0.508 0.609 0.604 0.991z"></path>
<path fill="#6d6d6d" style="fill: var(--color3, #6d6d6d)" d="M17.409 4.241c0 0.271-0.023 0.541-0.069 0.809-0.101-0.364-0.309-0.689-0.592-0.946-1.245-1.134-3.359-0.576-3.78 0.946-0.159-0.933-0.074-1.743 0.692-2.344 1.439-1.161 3.749-0.242 3.749 1.535z"></path>
<path fill="#6d6d6d" style="fill: var(--color3, #6d6d6d)" d="M14.027 2.493v-0.865c0-0.623 0.504-1.127 1.127-1.127s1.127 0.504 1.127 1.127v0.865z"></path>
<path fill="#b3cec9" style="fill: var(--color4, #b3cec9)" d="M18.951 8.625l-0.404-0.506c-0.194-0.194-0.449-0.291-0.704-0.291h-5.374c-0.255 0-0.51 0.097-0.704 0.291-0.019 0.023-0.395 0.495-0.419 0.525 0.586 3.161 0.992 2.046 0.992 7.074h5.636c0-2.611 0.066-3.491 0.385-4.636 0.064-0.233 0.664-2.372 0.593-2.457z"></path>
<path fill="#cae0dd" style="fill: var(--color5, #cae0dd)" d="M18.238 8.475l-0.328-0.411c-0.158-0.158-0.365-0.237-0.572-0.237h-4.365c-0.207 0-0.414 0.079-0.572 0.237-0.015 0.019-0.321 0.402-0.341 0.426 0.387 2.089 0.734 1.954 0.792 4.384 0.029 1.209 1.016 2.174 2.225 2.174 1.522 0 2.351-1.064 2.381-2.186 0.025-0.953 0.065-1.557 0.298-2.392 0.053-0.194 0.539-1.927 0.482-1.996z"></path>
<path fill="#5fc68f" style="fill: var(--color6, #5fc68f)" d="M22.819 19.11l-4.846-3.392h-5.636c-0.669 4.134-0.080 6.84 0.52 11.281l2.298-0.009v-7.891l3.946 1.128v2.254h2.656c1.819 0 2.528-2.343 1.063-3.372z"></path>
<path fill="#7adbae" style="fill: var(--color7, #7adbae)" d="M22.819 19.11l-4.846-3.392h-5.636c-0.563 3.478-0.208 4.897 0.376 9.22 0.135 1.004 1.369 1.419 2.084 0.701 0.221-0.222 0.357-0.528 0.357-0.866v-5.952c0-0.359 0.344-0.619 0.689-0.52l3.256 0.931c0 0.011-0.108-0.046 1.4 0.688h-1.4c0 0.865 0.701 1.567 1.567 1.567h1.089c0.851 0 1.568-0.573 1.786-1.355-0.116-0.423-0.38-0.781-0.722-1.022z"></path>
<path fill="#f9cfac" style="fill: var(--color1, #f9cfac)" d="M15.154 26.991v4.009c0 0.276-0.224 0.5-0.5 0.5h-3.366c-0.384 0-0.631-0.419-0.434-0.748 0.123-0.245 0.468-0.549 0.884-0.653l1.485-0.371c-0.089-0.665-0.016-0.119-0.368-2.729 0.105-0-0.201 0.001 2.298-0.009z"></path>
<path fill="#ffe4cc" style="fill: var(--color2, #ffe4cc)" d="M15.154 26.991v3.509c0 0.276-0.224 0.5-0.5 0.5h-3.366c-0.191 0-0.348-0.104-0.434-0.248 0.123-0.245 0.468-0.549 0.884-0.653l1.485-0.371-0.065-0.484 0.065-0.016-0.301-2.229 2.231-0.009z"></path>
<path fill="#f9cfac" style="fill: var(--color1, #f9cfac)" d="M19.1 20.228v2.254h-2.254c-0.29 1.157-0.31 1.564-0.802 1.949-0.248 0.193-0.558 0.306-0.889 0.306v-3.509c0-0.552 0.448-1 1-1h2.946z"></path>
<path fill="#ffe4cc" style="fill: var(--color2, #ffe4cc)" d="M19.1 20.228v1.587h-2.254c-0.29 1.157-0.31 1.564-0.803 1.949-0.248 0.193-0.557 0.306-0.889 0.306v-2.842c0-0.552 0.448-1 1-1h2.946z"></path>
<path fill="#f9cfac" style="fill: var(--color1, #f9cfac)" d="M15.154 10.318v3.146c0 0.312-0.253 0.564-0.564 0.564h-4.947c-0.777 0-1.362-0.704-1.236-1.456 0.073-0.449-0.036-0.207 3.356-4.453 0.44-0.44 1.146-0.343 1.45 0.045 0.347 0.392 0.333 0.99-0.041 1.364-1.404 1.789-1.572 2.003-2.205 2.808h2.497l0.207-1.185c0.313-0.944 1.23-1.044 1.236-1.050 0.131-0.021 0.248 0.084 0.248 0.217z"></path>
<path fill="#f9cfac" style="fill: var(--color1, #f9cfac)" d="M20.666 14.027h-4.948c-0.311 0-0.564-0.253-0.564-0.564v-3.146c0-0.132 0.117-0.238 0.248-0.217 0.006 0.006 0.923 0.107 1.236 1.050l0.208 1.185h2.497c-0.524-0.667-0.242-0.307-2.206-2.808-0.625-0.625-0.181-1.701 0.705-1.701 0.255 0 0.51 0.097 0.704 0.291 0.357 0.447 3.079 3.851 3.098 3.874 0.65 0.812 0.073 2.034-0.978 2.034z"></path>
<path fill="#ffe4cc" style="fill: var(--color2, #ffe4cc)" d="M14.904 12.491c0 0.312-0.253 0.564-0.564 0.564h-4.947c-0.408 0-0.773-0.2-0.986-0.482 0.073-0.45-0.036-0.207 3.356-4.453 0.388-0.388 1.020-0.389 1.409 0 0.013 0.013-0.067 0.254-0.25 0.436-1.453 1.851-1.078 1.373-1.778 2.264-0.265 0.337-0.332 0.79-0.177 1.19h0.257l-0.257 0.328h2.497l0.207-1.185c0.175-0.528 0.614-0.911 1.135-1.030 0.133 0.158 0.099 0.054 0.099 2.369z"></path>
<path fill="#ffe4cc" style="fill: var(--color2, #ffe4cc)" d="M21.913 12.656c-0.175 0.212-0.533 0.399-0.914 0.399h-4.948c-0.311 0-0.564-0.253-0.564-0.564 0-2.293-0.030-2.2 0.085-2.353 0.49 0.136 0.898 0.506 1.067 1.013l0.208 1.185h2.497l-0.257-0.328h0.339c0.055-0.142 0.082-0.291 0.082-0.439 0-0.53-0.272-0.767-0.817-1.461-1.47-1.872-1.433-1.783-1.489-2.048 0.388-0.328 0.976-0.313 1.346 0.057 2.373 2.971 0.307 0.385 3.098 3.874 0.152 0.191 0.245 0.421 0.268 0.662z"></path>
<path fill="#797a7a" style="fill: var(--color8, #797a7a)" d="M16.715 2.761c-0.848 0.341-2.302 0.312-3.054-0.056 0.883-0.712 2.215-0.678 3.054 0.056z"></path>
<path fill="#000" style="fill: var(--color9, #000)" d="M0.501 32h31c0.276 0 0.5-0.224 0.5-0.5s-0.224-0.5-0.5-0.5h-15.845v-5.829c0.671-0.178 1.211-0.707 1.386-1.407l0.196-0.782h4.52c2.298 0 3.224-2.969 1.349-4.281l-4.633-3.243c0.001-0.345 0.003-0.653 0.008-0.93h2.186c1.464 0 2.283-1.704 1.369-2.847-3.343-4.18-3.106-3.887-3.135-3.916-0.527-0.527-1.074-0.438-1.875-0.438 0.099-0.159 0.107-0.191 0.424-0.909 0.3-0.683 0.461-1.423 0.461-2.178 0-0.849-0.441-1.592-1.127-2.058 0-0.656 0.056-1.172-0.477-1.707-1.024-1.021-2.778-0.288-2.778 1.152v0.555c-0.686 0.466-1.127 1.209-1.127 2.058 0 0.749 0.155 1.481 0.461 2.178 0.309 0.701 0.32 0.744 0.424 0.909-0.767 0-1.344-0.093-1.875 0.438-0.036 0.036-0.28 0.348-0.481 0.597-0.413 0.511 0.35 1.167 0.806 0.594 0.394-0.494 0.421-0.579 0.641-0.62 0.070-0.013-0.274-0.008 5.467-0.008 0.315 0 0.378 0.198 0.726 0.62 0.073 0.095-0.299-0.374 2.686 3.358 0.392 0.49 0.040 1.222-0.588 1.222h-4.948c-0.092 0-0.064 0.118-0.064-2.821 0.224 0.12 0.405 0.316 0.498 0.571l0.201 1.145c0.042 0.239 0.25 0.414 0.492 0.414h2.497c0.416 0 0.651-0.481 0.393-0.809l-1.442-1.836c-0.171-0.217-0.485-0.255-0.702-0.084s-0.255 0.485-0.084 0.702l0.303 0.386c-0.055 0.211-0.102 0.417-0.142 0.642h-0.402l-0.135-0.771c-0.049-0.28-0.328-0.777-0.769-1.093-0.712-0.515-1.687-0.525-2.414-0.001-0.424 0.305-0.718 0.797-0.77 1.094l-0.135 0.771h-0.403c-0.040-0.224-0.087-0.431-0.141-0.642l0.303-0.386c0.171-0.217 0.133-0.532-0.085-0.702s-0.531-0.133-0.702 0.085l-1.442 1.836c-0.257 0.327-0.024 0.809 0.393 0.809h2.497c0.243 0 0.451-0.175 0.493-0.414l0.2-1.145c0.092-0.251 0.272-0.45 0.498-0.571v2.757c0 0.098 0.265 0.064-5.011 0.064-0.623 0-0.983-0.728-0.587-1.223l0.096-0.121c0.172-0.216 0.137-0.53-0.079-0.703s-0.531-0.137-0.703 0.079l-0.096 0.12c-0.925 1.156-0.083 2.847 1.369 2.847h2.185c0.005 0.339 0.008 0.721 0.008 1.154-0.684 4.282-0.091 6.829 0.833 13.67l-1.051 0.263c-0.7 0.175-1.229 0.714-1.407 1.386h-9.711c-0.276 0-0.5 0.224-0.5 0.5s0.224 0.5 0.5 0.5zM14.528 1.627c0-0.559 0.679-0.835 1.071-0.445 0.194 0.195 0.184 0.395 0.184 0.575-0.4-0.086-0.826-0.092-1.255 0v-0.13zM13.898 3.161c0.301-0.273 0.31-0.147 0.477-0.309 0.489-0.215 1.072-0.215 1.561 0 0.159 0.153 0.186 0.043 0.477 0.309 0.582 0.529 0.568 1.201 0.402 1.982-0.117 0.549-0.268 0.844-0.572 1.532-0.382 0.868-1.795 0.868-2.176-0-0.358-0.813-0.666-1.41-0.666-2.433 0-0.405 0.176-0.788 0.496-1.079zM16.847 21.981c-0.229 0-0.429 0.156-0.485 0.379l-0.29 1.161c-0.061 0.244-0.214 0.446-0.416 0.572v-3.366h2.945v1.255h-1.755zM15.155 14.364c0.346 0.217 0.465 0.163 2.326 0.163-0.005 0.348-0.008 0.741-0.008 1.191 0 0.128 0.051 0.255 0.141 0.348 0.051 0.052-0.266-0.175 4.918 3.454 1.080 0.756 0.543 2.462-0.776 2.462h-2.156v-1.255h0.627c0.276 0 0.5-0.224 0.5-0.5s-0.224-0.5-0.5-0.5h-1.057l-3.878-1.108c-0.319-0.091-0.637 0.148-0.637 0.481v7.391h-1.363c-0.58-4.294-1.053-6.574-0.526-10.273h2.388c0.276 0 0.5-0.224 0.5-0.5s-0.224-0.5-0.5-0.5h-2.319c-0.001-0.248-0.003-0.477-0.007-0.691 1.881 0 1.985 0.051 2.326-0.163zM11.861 30.584l1.485-0.371c0.247-0.062 0.408-0.3 0.374-0.552l-0.293-2.17h1.228v3.509h-3.366c0.126-0.202 0.328-0.355 0.572-0.416z"></path>
<path fill="#000" style="fill: var(--color9, #000)" d="M9.682 9.922l-0.077 0.096c-0.173 0.215-0.139 0.53 0.076 0.703 0.216 0.174 0.531 0.138 0.703-0.076l0.078-0.096c0.173-0.215 0.139-0.53-0.076-0.703s-0.53-0.139-0.703 0.076z"></path>
</symbol>
<symbol id="icon-lotos" viewBox="0 0 32 32">
<path fill="#ffe4cc" style="fill: var(--color2, #ffe4cc)" d="M28.5 27.762c-0.007 2.075-1.73 3.738-3.806 3.738h-17.444c-2.077 0-3.757-1.687-3.75-3.762s1.73-3.738 3.806-3.738h1.075c0.404 0.603 1.092 1 1.872 1h11.495c0.782 0 1.471-0.4 1.872-1h1.131c2.077 0 3.757 1.687 3.75 3.762z"></path>
<path fill="#7adbae" style="fill: var(--color7, #7adbae)" d="M24.694 31.5h-0.694v-3.75l-7 1.75-0.054-0.164c-0.266-0.798-1.013-1.336-1.854-1.336-0.741 0-1.101 0.339-2.092 1l-5-1.25v3.75h-0.75c-2.071 0-3.75-1.679-3.75-3.75 0-2.070 1.678-3.75 3.75-3.75h1.131c0.404 0.603 1.092 1 1.872 1h11.495c0.782 0 1.471-0.4 1.872-1 1.171 0 2.526-0.157 3.782 1.098 2.355 2.357 0.678 6.402-2.708 6.402z"></path>
<path fill="#7adbae" style="fill: var(--color7, #7adbae)" d="M23.619 24c-0.401 0.599-1.089 1-1.872 1h-11.495c-0.763 0-1.459-0.383-1.872-1-0.154 0.001-1.345 0.005-1.366 0.008-1.972 0.122-3.521 1.762-3.515 3.755 0.007 2.076 1.73 3.738 3.806 3.738h0.694v-1h-0.702c-2.449 0-3.74-2.949-1.993-4.694 0.942-0.943 2.154-0.806 1.944-0.806 0.079 0 0.154 0.037 0.201 0.1 0.41 0.546 1.063 0.9 1.799 0.9h12.25c1.151 0 2.107-0.866 2.235-1.992-0.195-0.013-0.354-0.008-0.116-0.008z"></path>
<path fill="#f9cfac" style="fill: var(--color1, #f9cfac)" d="M13.5 30.5c-0.801 0-1.141-1.020-0.5-1.5l-2.036 0.814c-0.452 0.181-0.484 0.686-0.464 0.686-1.057 0-1.986-0.701-2.276-1.717l-0.224-0.783v3.5h16v-1h-10.5z"></path>
<path fill="#f9cfac" style="fill: var(--color1, #f9cfac)" d="M24 22.748c0 1.237-1.005 2.253-2.253 2.253h-11.495c-1.437 0-2.512-1.333-2.199-2.741l0.644-2.902c0.764-3.435 3.812-5.857 7.302-5.857 3.517 0 6.543 2.446 7.302 5.857 0.693 3.119 0.698 3.057 0.698 3.391z"></path>
<path fill="#ffe4cc" style="fill: var(--color2, #ffe4cc)" d="M23.946 22.259l-0.644-2.902c-0.298-1.341-0.946-2.53-1.834-3.481-0.715-0.635-1.573-1.142-2.511-1.466-0.034 0.047-0.084 0.094-0.148 0.137-0.052-0.022-0.205-0.082-0.366-0.137-0.568 0.785-4.317 0.772-4.886 0.001-0.132 0.045-0.262 0.094-0.391 0.147-1.707 1.020-3.005 2.72-3.468 4.799-0.7 3.154-0.665 2.972-0.684 3.141 0.124 1.126 1.079 2.002 2.238 2.002 12.419 0 11.567 0.030 11.995-0.074 0.573-0.483 0.884-1.336 0.699-2.168z"></path>
<path fill="#f9cfac" style="fill: var(--color1, #f9cfac)" d="M17.223 25h-1.723c0-0.276 0.224-0.5 0.5-0.5 0.414 0 0.75-0.336 0.75-0.75 0-0.405-0.323-0.74-0.731-0.75-0.26-0.006-0.49-0.189-0.516-0.448-0.031-0.3 0.204-0.552 0.497-0.552 1.561 0 2.347 1.902 1.223 3z"></path>
<path fill="#7adbae" style="fill: var(--color7, #7adbae)" d="M19.611 18.5l0.889 4h-0.379c-1.318 0-2.633-0.512-3.621-1.5h-1c-0.952 0.952-2.253 1.5-3.621 1.5h-0.879l0.483-2.174c0.93-0.164 1.25-0.214 1.564-0.29 2.957-0.702 5.197-3.062 5.794-5.976 1.911 0.784 3.488 2.367 4.215 4.439h-3.446z"></path>
<path fill="#edac5f" style="fill: var(--color10, #edac5f)" d="M23.057 18.5h-0.196c-0.801-1.847-2.306-3.268-4.128-3.983 0.041-0.151 0.078-0.303 0.109-0.456 1.911 0.784 3.488 2.367 4.215 4.439z"></path>
<path fill="#f9cfac" style="fill: var(--color1, #f9cfac)" d="M21.5 22.5h-1c-0.791-3.564-0.592-2.668-0.889-4h0.889l1 4z"></path>
<path fill="#f9cfac" style="fill: var(--color1, #f9cfac)" d="M20.5 9.484c-0.245 0.487-0.451 0.732-1.031 1.516h-0.114c-0.431 1.446-1.769 2.5-3.355 2.5-1.588 0-2.926-1.058-3.355-2.5h-0.114l-0.582-0.787c-2.055-2.779-0.575-6.57 2.551-7.499v-0.679c0-1.352 1.607-2.046 2.561-1.095 0.52 0.521 0.439 1.056 0.439 1.774 2.861 0.851 4.343 4.096 3 6.771z"></path>
<path fill="#ffe4cc" style="fill: var(--color2, #ffe4cc)" d="M19.5 7.5v1.5c0 1.93-1.578 3.557-3.508 3.553-1.453-0.003-2.492-1.179-2.492-2.502 0-2.077 1.64-3.551 3.5-3.551h1.498c0.552 0 1.001 0.447 1.001 1z"></path>
<path fill="#797a7a" style="fill: var(--color8, #797a7a)" d="M16.035 0.5c-1.119-0.019-2.035 0.921-2.035 2.039v0.96h4v-1c0-1.091-0.879-1.981-1.965-2z"></path>
<path fill="#6d6d6d" style="fill: var(--color3, #6d6d6d)" d="M20.051 10.212l-0.582 0.787h-0.114c0.195-0.656 0.145-0.92 0.145-3.5 0-0.348-0.051-0.683-0.145-1h-0.296c-0.34 0-0.656-0.192-0.809-0.5-0.153-0.306-0.466-0.5-0.809-0.5h-2.882c-0.34 0-0.655 0.192-0.809 0.5-0.153 0.306-0.466 0.5-0.809 0.5h-0.296c-0.196 0.656-0.145 0.92-0.145 3.5 0 0.348 0.051 0.683 0.145 1h-0.114l-0.582-0.787c-2.055-2.779-0.575-6.57 2.551-7.499 0.942-0.281 2.036-0.288 3 0 3.126 0.929 4.606 4.72 2.551 7.499z"></path>
<path fill="#7adbae" style="fill: var(--color7, #7adbae)" d="M24.75 31.5h-0.75v-1h1.25c1.719 0 3.116-1.33 3.241-3.005 0.146 2.186-1.585 4.005-3.741 4.005z"></path>
<path fill="#7adbae" style="fill: var(--color7, #7adbae)" d="M20.562 22.5c-0.452 0-0.653 0.006-0.986-0.029-1.014-0.108-1.975-0.517-2.757-1.176-0.303-0.256-0.686-0.34-1.039-0.279-0.644 0.102-0.704 0.58-1.942 1.094-1.108 0.459-1.941 0.39-2.839 0.39l0.483-2.174 1.041-0.183-0.113 0.302c-0.084 0.227 0.077 0.471 0.319 0.483 0.381-0.064 0.753-0.171 1.108-0.318 1.226-0.509 1.303-0.993 1.942-1.094 0.351-0.061 0.732 0.020 1.039 0.279 0.915 0.77 2.059 1.206 3.368 1.206l0.375 1.5z"></path>
<path fill="#f9cfac" style="fill: var(--color1, #f9cfac)" d="M12.988 18.109l-0.451 2.032-1.054 0.186 0.529-2.435c0.060-0.269 0.327-0.439 0.596-0.379s0.44 0.327 0.38 0.597z"></path>
<path fill="#000" style="fill: var(--color9, #000)" d="M9.555 17.161c0.229 0.154 0.54 0.093 0.694-0.137 0.030-0.044 0.060-0.087 0.092-0.13 0.162-0.223 0.113-0.536-0.11-0.698s-0.536-0.113-0.698 0.11c-0.039 0.053-0.077 0.107-0.113 0.161-0.154 0.229-0.093 0.54 0.136 0.694z"></path>
<path fill="#000" style="fill: var(--color9, #000)" d="M31.5 31h-4.015c3.014-2.54 1.238-7.5-2.735-7.5h-0.354c0.246-0.871 0.068-1.219-0.606-4.252-0.62-2.787-2.708-5.097-5.561-5.929 0.681-0.459 1.213-1.121 1.509-1.899 0.104-0.066 0.077-0.048 0.715-0.912 2.219-3.002 0.697-6.99-2.453-8.159v-0.35c0-1.103-0.897-2-2-2s-2 0.897-2 2v0.35c-3.151 1.169-4.672 5.158-2.453 8.159 0.641 0.867 0.611 0.845 0.715 0.912 0.296 0.777 0.828 1.439 1.508 1.898-1.063 0.31-2.059 0.839-2.915 1.563-0.211 0.178-0.238 0.494-0.059 0.705s0.494 0.238 0.705 0.059c1.844-1.557 4.396-2.074 6.753-1.27-0.724 2.722-2.935 4.766-5.741 5.261l-0.378 0.067 0.354-1.595c0.060-0.27-0.11-0.537-0.38-0.597s-0.537 0.11-0.597 0.38c-0.111 0.501-0.766 3.447-0.913 4.108h-0.599c-0.276 0-0.5 0.224-0.5 0.5s0.224 0.5 0.5 0.5h1.879c1.502 0 2.913-0.585 3.975-1.646 0.098-0.098 0.146-0.225 0.146-0.353 0 0.128 0.049 0.256 0.146 0.353 1.062 1.062 2.473 1.646 3.975 1.646h1.879c0.276 0 0.5-0.224 0.5-0.5s-0.224-0.5-0.5-0.5h-0.599l-0.667-3h1.957c0.046 0.154 0.087 0.308 0.122 0.465 0.706 3.181 0.686 3.022 0.686 3.282 0 0.968-0.784 1.753-1.752 1.753h-4.167c0.108-0.227 0.169-0.482 0.169-0.75 0-1.695-2.25-2.262-2.25-1.25 0 0.276 0.224 0.5 0.5 0.5 0.414 0 0.75 0.336 0.75 0.75s-0.336 0.75-0.75 0.75h-5.747c-1.118 0-1.954-1.039-1.711-2.133 0.661-2.979 0.691-3.219 0.92-3.829 0.097-0.259-0.034-0.547-0.293-0.644s-0.547 0.034-0.644 0.293c-0.258 0.69-0.276 0.886-0.959 3.963-0.099 0.444-0.087 0.906 0.040 1.35h-0.355c-3.935 0-5.767 4.942-2.738 7.5h-4.012c-0.276 0-0.5 0.224-0.5 0.5s0.224 0.5 0.5 0.5h31c0.276 0 0.5-0.224 0.5-0.5s-0.224-0.5-0.5-0.5zM15 2c0-0.551 0.449-1 1-1s1 0.449 1 1c0 0.205 0.067-0.032-1.182 0.003-0.909 0.025-0.818 0.17-0.818-0.003zM11.941 5.488c1.618-3.322 6.497-3.329 8.118 0 0.614 1.262 0.584 2.668-0.059 3.871-0-2.011 0.112-3.36-0.645-3.36-0.261 0-0.523 0.047-0.658-0.224-0.239-0.479-0.721-0.776-1.256-0.776-3.109 0-3.168-0.068-3.622 0.21-0.584 0.362-0.452 0.79-0.878 0.79h-0.296c-0.761 0-0.645 1.359-0.645 3.36-0.643-1.204-0.673-2.609-0.059-3.872zM13 10c0-2.744-0.014-2.671 0.042-3.004 0.494-0.035 0.931-0.324 1.156-0.774 0.033-0.067 0.085-0.123 0.147-0.162 0.14-0.086-0.023-0.061 3.097-0.061 0.425 0 0.294 0.427 0.88 0.791 0.194 0.119 0.412 0.189 0.636 0.205 0.059 0.349 0.042 0.309 0.042 3.004 0 1.654-1.346 3-3 3s-3-1.346-3-3zM20.512 18l-0.024-0.108c-0.060-0.27-0.327-0.44-0.597-0.38s-0.44 0.327-0.38 0.597l0.865 3.892h-0.255c-1.234 0-2.395-0.481-3.268-1.354-0.316-0.316-0.853-0.088-0.854 0.353-0-0.441-0.538-0.669-0.854-0.353-0.873 0.873-2.033 1.354-3.268 1.354h-0.255l0.275-1.239 0.787-0.139c3.185-0.562 5.654-2.898 6.497-5.852 1.4 0.716 2.477 1.858 3.127 3.23h-1.797zM11.379 29.11l-0.502 0.201c-0.682 0.273-1.020 1.009-0.819 1.689h-1.557v-2.61l2.879 0.72zM11.394 31c-0.431 0-0.549-0.6-0.147-0.761 2.072-0.829 1.967-0.782 2.029-0.823 1.059-0.706 1.26-0.916 1.814-0.916 0.627 0 1.181 0.4 1.379 0.994l0.055 0.164c0.083 0.248 0.342 0.39 0.596 0.327l6.379-1.595v2.61h-12.105zM24.5 31v-2.86l0.621-0.155c0.268-0.067 0.431-0.338 0.364-0.606s-0.338-0.431-0.606-0.364l-7.568 1.892c-0.401-0.852-1.26-1.407-2.219-1.407-0.893 0-1.361 0.412-2.185 0.961l-5.785-1.446c-0.268-0.067-0.539 0.096-0.606 0.364s0.096 0.539 0.364 0.606l0.621 0.155v2.86h-0.25c-1.8 0-3.25-1.458-3.25-3.25s1.458-3.25 3.25-3.25h0.882c0.505 0.61 1.268 1 2.121 1h11.495c0.83 0 1.596-0.366 2.122-1 1.021 0 2.116-0.11 3.179 0.951 2.030 2.032 0.604 5.548-2.298 5.548h-0.25z"></path>
</symbol>
<symbol id="icon-sound" viewBox="0 0 32 32">
<path fill="#cae0dd" style="fill: var(--color5, #cae0dd)" d="M14.625 19.375l-9 2.565v-3.514l9-2.565v3.514z"></path>
<path fill="#cae0dd" style="fill: var(--color5, #cae0dd)" d="M3.125 31.375c1.381 0 2.5-1.119 2.5-2.5s-1.119-2.5-2.5-2.5-2.5 1.119-2.5 2.5c0 1.381 1.119 2.5 2.5 2.5z"></path>
<path fill="#cae0dd" style="fill: var(--color5, #cae0dd)" d="M12.125 28.81c1.381 0 2.5-1.119 2.5-2.5s-1.119-2.5-2.5-2.5c-1.381 0-2.5 1.119-2.5 2.5s1.119 2.5 2.5 2.5z"></path>
<path fill="#cae0dd" style="fill: var(--color5, #cae0dd)" d="M24.849 6.019l6.526-1.881v-3.514l-6.526 1.881v3.514z"></path>
<path fill="#cae0dd" style="fill: var(--color5, #cae0dd)" d="M22.349 15.454c1.381 0 2.5-1.119 2.5-2.5s-1.119-2.5-2.5-2.5c-1.381 0-2.5 1.119-2.5 2.5s1.119 2.5 2.5 2.5z"></path>
<path fill="#7adbae" style="fill: var(--color7, #7adbae)" d="M24.546 26.532l-2.99 1.572 0.571-3.33-2.419-2.358 3.343-0.486 1.495-3.029 1.495 3.029 3.343 0.486-2.419 2.358 0.571 3.33-2.99-1.572z"></path>
<path fill="#7adbae" style="fill: var(--color7, #7adbae)" d="M4.698 6.895l-2.457 1.292 0.469-2.736-1.988-1.938 2.747-0.399 1.228-2.489 1.228 2.489 2.747 0.399-1.988 1.938 0.469 2.736-2.457-1.292z"></path>
<path fill="#000" style="fill: var(--color9, #000)" d="M14.625 15.236c-0.059 0-0.117 0.009-0.171 0.024l-0-0-1.795 0.512c-0.332 0.095-0.524 0.44-0.43 0.772 0.078 0.275 0.329 0.454 0.601 0.454 0.057 0 0.114-0.008 0.172-0.024l0.999-0.285v2.214l-7.75 2.209v-2.214l1.341-0.382c0.332-0.095 0.524-0.44 0.43-0.772s-0.44-0.524-0.772-0.43l-1.795 0.512c-0.262 0.075-0.454 0.315-0.454 0.601v7.95c-0.523-0.393-1.172-0.627-1.875-0.627-1.723 0-3.125 1.402-3.125 3.125s1.402 3.125 3.125 3.125 3.125-1.402 3.125-3.125v-6.463l7.75-2.209v3.608c-0.523-0.393-1.172-0.627-1.875-0.627-1.723 0-3.125 1.402-3.125 3.125s1.402 3.125 3.125 3.125c1.723 0 3.125-1.402 3.125-3.125v-10.448c0-0.345-0.28-0.625-0.625-0.625zM3.125 30.75c-1.034 0-1.875-0.841-1.875-1.875s0.841-1.875 1.875-1.875 1.875 0.841 1.875 1.875c0 1.034-0.841 1.875-1.875 1.875zM12.125 28.185c-1.034 0-1.875-0.841-1.875-1.875s0.841-1.875 1.875-1.875c1.034 0 1.875 0.841 1.875 1.875s-0.841 1.875-1.875 1.875z"></path>
<path fill="#000" style="fill: var(--color9, #000)" d="M31.751 0.126c-0.157-0.118-0.36-0.155-0.549-0.101l-6.526 1.881c-0.268 0.077-0.452 0.322-0.452 0.601v7.95c-0.523-0.393-1.172-0.627-1.875-0.627-1.723 0-3.125 1.402-3.125 3.125s1.402 3.125 3.125 3.125c1.723 0 3.125-1.402 3.125-3.125v-6.464l6.074-1.75c0.268-0.077 0.452-0.322 0.452-0.601v-3.514c0-0.196-0.092-0.381-0.249-0.499zM22.349 14.829c-1.034 0-1.875-0.841-1.875-1.875s0.841-1.875 1.875-1.875c1.034 0 1.875 0.841 1.875 1.875s-0.841 1.875-1.875 1.875zM30.75 3.668l-5.276 1.52v-2.213l5.276-1.52v2.213z"></path>
<path fill="#000" style="fill: var(--color9, #000)" d="M29.474 21.798l-3.018-0.439-1.35-2.735c-0.105-0.213-0.323-0.348-0.56-0.348s-0.455 0.135-0.56 0.348l-1.35 2.735-3.018 0.439c-0.235 0.034-0.431 0.199-0.505 0.425s-0.012 0.475 0.158 0.641l2.184 2.129-0.516 3.006c-0.040 0.234 0.056 0.471 0.249 0.611s0.448 0.158 0.658 0.048l2.699-1.419 2.699 1.419c0.091 0.048 0.191 0.072 0.291 0.072 0.13 0 0.259-0.040 0.367-0.119 0.193-0.14 0.289-0.377 0.249-0.611l-0.516-3.006 2.184-2.129c0.17-0.166 0.232-0.414 0.158-0.641s-0.269-0.391-0.504-0.425zM26.529 24.327c-0.147 0.144-0.215 0.35-0.18 0.553l0.357 2.082-1.869-0.983c-0.182-0.096-0.4-0.096-0.582 0l-1.869 0.983 0.357-2.082c0.035-0.203-0.032-0.41-0.18-0.553l-1.512-1.474 2.090-0.304c0.204-0.030 0.38-0.157 0.471-0.342l0.935-1.894 0.935 1.894c0.091 0.184 0.267 0.312 0.471 0.342l2.090 0.304-1.512 1.474z"></path>
<path fill="#000" style="fill: var(--color9, #000)" d="M2.039 5.669l-0.414 2.412c-0.040 0.234 0.056 0.471 0.249 0.611s0.448 0.158 0.658 0.048l2.166-1.139 2.166 1.139c0.091 0.048 0.191 0.072 0.291 0.072 0.13 0 0.259-0.040 0.367-0.119 0.192-0.14 0.289-0.377 0.249-0.611l-0.414-2.412 1.753-1.708c0.17-0.166 0.232-0.414 0.158-0.641s-0.269-0.391-0.505-0.425l-2.422-0.352-1.083-2.195c-0.105-0.213-0.322-0.348-0.56-0.348s-0.455 0.135-0.56 0.348l-1.083 2.195-2.422 0.352c-0.235 0.034-0.431 0.199-0.505 0.425s-0.012 0.475 0.158 0.641l1.752 1.708zM3.559 3.733c0.204-0.030 0.38-0.157 0.471-0.342l0.668-1.354 0.668 1.354c0.091 0.184 0.267 0.312 0.471 0.342l1.494 0.217-1.081 1.054c-0.147 0.144-0.215 0.351-0.18 0.553l0.255 1.488-1.336-0.702c-0.091-0.048-0.191-0.072-0.291-0.072s-0.2 0.024-0.291 0.072l-1.336 0.702 0.255-1.488c0.035-0.203-0.032-0.41-0.18-0.553l-1.081-1.054 1.494-0.217z"></path>
<path fill="#000" style="fill: var(--color9, #000)" d="M14.625 5.394c-0.345 0-0.625 0.28-0.625 0.625v0.625c0 0.345 0.28 0.625 0.625 0.625s0.625-0.28 0.625-0.625v-0.625c0-0.345-0.28-0.625-0.625-0.625z"></path>
<path fill="#000" style="fill: var(--color9, #000)" d="M14.625 9.769c-0.345 0-0.625 0.28-0.625 0.625v0.625c0 0.345 0.28 0.625 0.625 0.625s0.625-0.28 0.625-0.625v-0.625c0-0.345-0.28-0.625-0.625-0.625z"></path>
<path fill="#000" style="fill: var(--color9, #000)" d="M17.125 7.894h-0.625c-0.345 0-0.625 0.28-0.625 0.625s0.28 0.625 0.625 0.625h0.625c0.345 0 0.625-0.28 0.625-0.625s-0.28-0.625-0.625-0.625z"></path>
<path fill="#000" style="fill: var(--color9, #000)" d="M12.125 9.144h0.625c0.345 0 0.625-0.28 0.625-0.625s-0.28-0.625-0.625-0.625h-0.625c-0.345 0-0.625 0.28-0.625 0.625s0.28 0.625 0.625 0.625z"></path>
<path fill="#000" style="fill: var(--color9, #000)" d="M10.125 17.769c0.164 0 0.326-0.067 0.442-0.183s0.183-0.277 0.183-0.442c0-0.165-0.067-0.326-0.183-0.442s-0.277-0.183-0.442-0.183-0.326 0.066-0.442 0.183c-0.116 0.117-0.183 0.277-0.183 0.442s0.067 0.326 0.183 0.442c0.116 0.116 0.277 0.183 0.442 0.183z"></path>
</symbol>
</defs>
</svg>
